<svg xmlns="http://www.w3.org/2000/svg" viewBox="0 0 1253.64 351.09"><defs><style>.cls-1{fill:#fff;}.cls-2,.cls-3{fill:red;}.cls-3{stroke:red;stroke-miterlimit:10;}</style></defs><title>Soapbox Race World</title><g id="Layer_2" data-name="Layer 2"><g id="Soapbox"><path class="cls-1" d="M229.33,26.38a25.71,25.71,0,0,1,.47,7.41L221,143.69a27.67,27.67,0,0,1-1.73,7.4,19.08,19.08,0,0,1-1.49,2.78,12.26,12.26,0,0,1-1.95,2.37,30.36,30.36,0,0,1-2.51,1.85,9.48,9.48,0,0,1-3,1.24,16,16,0,0,1-3.6.82,36.84,36.84,0,0,1-4.07.2h-67a35.45,35.45,0,0,1-3.92-.2,16,16,0,0,1-3.6-.82,8.59,8.59,0,0,1-2.74-1.24,13,13,0,0,1-2.12-1.85,6.61,6.61,0,0,1-1.64-2.37c-.37-.89-.76-1.82-1.17-2.78a34.79,34.79,0,0,1-.47-7.4l8.92-109.9a23.7,23.7,0,0,1,1.57-7.41c.52-.95,1-1.88,1.57-2.77a9,9,0,0,1,2-2.37,18.21,18.21,0,0,1,2.35-1.85,9.44,9.44,0,0,1,3.13-1.24,15.93,15.93,0,0,1,3.61-.82,37.67,37.67,0,0,1,3.91-.21h67.2a35.58,35.58,0,0,1,3.84.21,15.93,15.93,0,0,1,3.52.82,7.64,7.64,0,0,1,2.82,1.24,27.59,27.59,0,0,1,2.19,1.85,9.49,9.49,0,0,1,1.57,2.37A25.75,25.75,0,0,1,229.33,26.38Zm-40,106.19,6.9-87.46h-36l-7.05,87.46h36.18Z"/><path class="cls-1" d="M79.3,34.63H42.2L40,65.14H92.53a37.19,37.19,0,0,1,4.11.23,15.45,15.45,0,0,1,3.79.91,13.64,13.64,0,0,1,4.84,3.42,12.43,12.43,0,0,1,2.9,5.69,18.32,18.32,0,0,1,.57,3.87,42.47,42.47,0,0,1-.08,4.33l-4.52,60.1a32.47,32.47,0,0,1-1.77,8.2,23.17,23.17,0,0,1-1.54,3.07,13.66,13.66,0,0,1-2,2.62,28.9,28.9,0,0,1-2.58,2A9.47,9.47,0,0,1,93.17,161a18.13,18.13,0,0,1-5,.91c-2.15.15-4,.23-5.48.23H19c-1.4,0-3.23-.08-5.48-.23A18.8,18.8,0,0,1,8.33,161a10.63,10.63,0,0,1-4.83-3.42,12.39,12.39,0,0,1-2.91-5.69A17.61,17.61,0,0,1,0,148a37.4,37.4,0,0,1,.08-4.33l2.26-30H35.91L34.62,131.4H71.88l2.58-33.24.16-3H33.09q-7.5,0-11.29-.12a43,43,0,0,1-5.16-.34A15,15,0,0,1,14,94.06a9.61,9.61,0,0,1-4.84-3.42A12.28,12.28,0,0,1,6.24,85a21.91,21.91,0,0,1-.49-7.28L10,22.11a27.36,27.36,0,0,1,1.61-8.19c.54-1.06,1.07-2.09,1.61-3.08a9.78,9.78,0,0,1,2.1-2.62,18.88,18.88,0,0,1,2.42-2.05,9.31,9.31,0,0,1,3.06-1.36,21.09,21.09,0,0,1,5.49-.91c2.36-.15,4.24-.23,5.64-.23H96.72A25.25,25.25,0,0,1,100,3.9c1.13.15,2.2.26,3.22.34a5.87,5.87,0,0,1,2.34.57,10.64,10.64,0,0,1,5,3.41,13.43,13.43,0,0,1,2.74,5.7,17.61,17.61,0,0,1,.57,3.87,42.27,42.27,0,0,1-.08,4.32l-2.26,30.06H78Z"/><path class="cls-1" d="M271,136.32c-.1.69-.4,2.05-.88,4.1s-1,4.33-1.59,6.85-1.15,5-1.68,7.37-1,4.2-1.28,5.42H231.11v-.41l44.22-142h37.52l20.92,142v.41H299.28q-.16-3.88-.48-9.92t-1-13.82Zm6.71-23.74H295q-.8-8.17-2-20.57T290.5,63.46c-.75,2.74-1.54,5.81-2.39,9.21s-1.82,7.17-2.88,11.26Z"/><path class="cls-1" d="M379.37,132.54l-2.28,27.34H343.65L355.5,15.75h76.3q4.54,0,8,.2a7.41,7.41,0,0,1,5.44,2.49q4.38,3.93,3.73,12.42l-5.36,65q-.81,8.28-5.84,12.84-5.35,4.14-14.29,4.14H381Zm7.3-88.63-3.57,43.9h29.38l3.58-43.9Z"/><path class="cls-1" d="M448.86,159.55l12-155.82H539a30.2,30.2,0,0,1,8.33,1,13.45,13.45,0,0,1,6.43,4.36,10.77,10.77,0,0,1,2.49,6.83,46.44,46.44,0,0,1-.25,6.6l-2.06,27.32c-.12,1.34-.23,2.87-.35,4.59a29.21,29.21,0,0,1-.77,5,19.7,19.7,0,0,1-1.89,4.81,12.17,12.17,0,0,1-3.86,4.14q-4.63,3.13-7.9,5.26t-6.35,3.92q4.13,2.23,7.81,3.92a18.52,18.52,0,0,1,6.27,4.59,10.54,10.54,0,0,1,2,3.36,17.07,17.07,0,0,1,1,4.36,43.69,43.69,0,0,1,.26,4.7v3.92l-3.26,38.73q-.69,9.18-5.67,13.66-4.46,4.69-14.24,4.7Zm37.08-30.22H512.2l3.44-39H489ZM493.66,34l-2.4,30.45H517.7L520.1,34Z"/><path class="cls-1" d="M670,25.58a25,25,0,0,1,.48,7.41l-8.94,109.89a27,27,0,0,1-1.76,7.41,20.29,20.29,0,0,1-1.52,2.78,12.42,12.42,0,0,1-2,2.36,29.37,29.37,0,0,1-2.55,1.86,9.5,9.5,0,0,1-3,1.23,15.91,15.91,0,0,1-3.67.82,38.24,38.24,0,0,1-4.15.21H574.5a36.75,36.75,0,0,1-4-.21,15.91,15.91,0,0,1-3.67-.82,8.6,8.6,0,0,1-2.8-1.23,13.24,13.24,0,0,1-2.15-1.86,6.56,6.56,0,0,1-1.68-2.36c-.37-.89-.77-1.82-1.2-2.78a35.52,35.52,0,0,1-.48-7.41L567.63,33a23.19,23.19,0,0,1,1.59-7.41c.54-1,1.07-1.88,1.6-2.78a8.61,8.61,0,0,1,2.08-2.36,17.2,17.2,0,0,1,2.39-1.86,9.68,9.68,0,0,1,3.2-1.23,16.46,16.46,0,0,1,3.67-.83,39.47,39.47,0,0,1,4-.2h68.52a37,37,0,0,1,3.91.2,16.55,16.55,0,0,1,3.59.83,8,8,0,0,1,2.88,1.23,26.15,26.15,0,0,1,2.23,1.86,9.09,9.09,0,0,1,1.6,2.36A24.08,24.08,0,0,1,670,25.58ZM629.27,131.77l7-87.46H599.57l-7.19,87.46h36.89Z"/><path class="cls-1" d="M771.74,158.76H737.9L724.09,104,698,158.76H665.34l.17-1.23,34.17-72.85L681.33,16.77l.17-1.24h33.84L726.28,71.1l-.17.2,23.24-55.77H780v1.24l-29.8,67.91,21.72,72.85Z"/></g><g id="Race"><path class="cls-1" d="M822.8,160.35,834.25,0h78.18q4.29,0,9.12.23c3.22.16,5.67,1,7.34,2.54q5,4.37,4.29,14.05l-.71,7.83L928.53,73a25.12,25.12,0,0,1-1.88,8.29,19.7,19.7,0,0,1-4,6q-4.83,4.38-15,4.38h-7l26.12,67v1.61H887.21l-23.08-59.67-4.83,59.67H822.8ZM864.13,52.07l-1.61,19.12h32.2l3.22-39.86h-32.2Z"/><path class="cls-1" d="M975.26,136.06c-.1.69-.4,2.05-.89,4.09s-1,4.33-1.63,6.85-1.17,5-1.71,7.35-1,4.19-1.3,5.41H934.57v-.4l45.09-141.8h38.25l21.33,141.8v.4h-35.16q-.17-3.87-.49-9.9t-1-13.8Zm6.84-23.7h17.58q-.81-8.16-2-20.53t-2.53-28.5q-1.14,4.1-2.44,9.19t-2.93,11.24Z"/><path class="cls-1" d="M1119.05,132.55l1.27-16h33.22l-2.23,27a30.75,30.75,0,0,1-.56,3.9,15.73,15.73,0,0,1-1.2,3.48,14.24,14.24,0,0,1-3.51,5.12,16.39,16.39,0,0,1-5.43,3.07,16.74,16.74,0,0,1-3.76.82,40.55,40.55,0,0,1-4.23.2h-68.35a36.81,36.81,0,0,1-4-.2,16.57,16.57,0,0,1-3.67-.82,8.64,8.64,0,0,1-2.79-1.23,12.8,12.8,0,0,1-2.16-1.84,6.69,6.69,0,0,1-1.68-2.36c-.37-.88-.77-1.81-1.19-2.76a33.93,33.93,0,0,1-.48-7.38l9.1-109.37a22.65,22.65,0,0,1,1.6-7.37c.53-1,1.06-1.88,1.59-2.77a9.11,9.11,0,0,1,2.08-2.36,17.34,17.34,0,0,1,2.4-1.84,9.84,9.84,0,0,1,3.19-1.23,16.57,16.57,0,0,1,3.67-.82,39.52,39.52,0,0,1,4-.2h68.51c1.38,0,2.74.07,4.07.2a14.19,14.19,0,0,1,3.6.82,10.66,10.66,0,0,1,5,3.07,11.71,11.71,0,0,1,2.71,5.13,14.39,14.39,0,0,1,.56,3.48,32.09,32.09,0,0,1-.08,3.89l-2.24,27H1124.8l1.27-15.78h-36.73l-7.19,87.05Z"/><path class="cls-1" d="M1176.05,16.61h77.59l-.91,11.51-1.2,16.43H1205l-2.11,27.53h42.78l-2,23.83h-42.63l-2.86,36h46.55l-2.11,27.73h-77.58Z"/></g><g id="World"><path class="cls-2" d="M597.87,185.5,560.49,350.76H517.31l-27.15-73.61-44.28,73.61H405.82L404,185.5q6.9,0,12.91-.12t10.9.12H453l1.34,81.92L483,208.29h28.71l16.91,59.84L549.8,185.5h48.07Z"/><path class="cls-2" d="M754,196a23.38,23.38,0,0,1,.67,8.51L742.07,330.65a26.15,26.15,0,0,1-2.48,8.51,21.68,21.68,0,0,1-2.14,3.19,16.2,16.2,0,0,1-2.83,2.72c-1.2.79-2.41,1.49-3.61,2.12a15.22,15.22,0,0,1-4.29,1.42,27.86,27.86,0,0,1-5.19.95c-1.81.15-3.76.23-5.87.23H619.05c-2,0-3.84-.08-5.65-.23a28,28,0,0,1-5.19-.95,13.72,13.72,0,0,1-4-1.42,17.94,17.94,0,0,1-3-2.12,8.08,8.08,0,0,1-2.37-2.72c-.53-1-1.09-2.09-1.69-3.19a32.63,32.63,0,0,1-.68-8.51l12.87-126.19A22.25,22.25,0,0,1,611.6,196c.75-1.1,1.5-2.17,2.25-3.19a11.18,11.18,0,0,1,2.94-2.72,24.75,24.75,0,0,1,3.38-2.13,15.74,15.74,0,0,1,4.52-1.41,27.21,27.21,0,0,1,5.19-.95c1.81-.16,3.69-.24,5.65-.24h96.84c2,0,3.8.08,5.53.24a27.25,27.25,0,0,1,5.08.95,12.67,12.67,0,0,1,4.06,1.41A38.1,38.1,0,0,1,750.2,190a11.14,11.14,0,0,1,2.26,2.72A24.89,24.89,0,0,1,754,196ZM696.47,317.89l9.94-100.44H654.49L644.33,317.89h52.14Z"/><path class="cls-2" d="M764.75,350l14.09-163.69h96.28c3.53,0,7.27.08,11.24.24s7,1,9,2.59q6.17,4.47,5.29,14.34l-.88,8L895,260.82a22.46,22.46,0,0,1-2.31,8.47,20.31,20.31,0,0,1-5,6.11q-6,4.47-18.51,4.47h-8.59l32.17,68.44V350H844.06L815.64,289,809.69,350H764.75Zm50.89-110.53-2,19.52h39.66l4-40.69H817.62Z"/><path class="cls-2" d="M976.19,187.4,963.87,318.16H1022l-3.46,32.93H916.1L931.88,187.4Z"/><path class="cls-2" d="M1187.13,197.75a22.62,22.62,0,0,1,.77,6.55c-.08,2.19-.19,4.06-.33,5.62l-12,121.24a30.13,30.13,0,0,1-2.17,8.43c-.73,1.09-1.46,2.14-2.18,3.16a11.05,11.05,0,0,1-2.83,2.69c-1.17.78-2.29,1.48-3.38,2.1a13.08,13.08,0,0,1-4.24,1.41,25.5,25.5,0,0,1-5,.93c-1.74.16-3.56.24-5.45.24h-116.5l15.24-162.9h117.16c1.88,0,3.7.08,5.44.23a22,22,0,0,1,4.79.94,13.21,13.21,0,0,1,4,1.4,17.49,17.49,0,0,1,2.94,2.11,7.83,7.83,0,0,1,2.29,2.69C1186.23,195.61,1186.7,196.66,1187.13,197.75ZM1131.6,318.52l8.93-99.47H1091.1l-9.58,99.47Z"/></g><g id="Main_Stripes" data-name="Main Stripes"><g id="Stripe_2" data-name="Stripe #2"><polygon class="cls-2" points="324.12 336.89 324.54 339.2 324.96 341.5 321.75 341.59 318.54 341.67 321.33 339.28 324.12 336.89"/><polygon class="cls-2" points="301.13 280.17 323.85 280.46 346.57 280.75 345.88 288.82 345.19 296.89 323.16 288.53 301.13 280.17"/><rect class="cls-2" x="305.48" y="280.24" width="41.04" height="13.62"/><polygon class="cls-2" points="326.21 288.5 351.45 296.76 335 319.19 318.54 341.63 309.75 310.93 300.96 280.24 326.21 288.5"/><rect class="cls-2" x="318.9" y="280.24" width="18.65" height="61.39"/><rect class="cls-2" x="334.53" y="280.24" width="43.52" height="61.39"/></g><g id="Stripe_1" data-name="Stripe #1"><polygon class="cls-2" points="294.61 253.32 295.26 255.69 295.91 258.05 290.95 258.14 285.99 258.23 290.3 255.77 294.61 253.32"/><polygon class="cls-2" points="259.05 195.02 294.19 195.32 329.34 195.61 328.28 203.91 327.21 212.2 293.13 203.61 259.05 195.02"/><rect class="cls-2" x="265.78" y="195.09" width="63.5" height="14"/><polygon class="cls-2" points="297.84 203.58 336.9 212.07 311.44 235.12 285.97 258.18 272.38 226.63 258.78 195.09 297.84 203.58"/><rect class="cls-2" x="286.53" y="195.09" width="28.86" height="63.09"/><rect class="cls-2" x="310.72" y="195.09" width="67.33" height="63.09"/></g><g id="Stripe_2B" data-name="Stripe #2B"><polygon class="cls-3" points="331.09 286.02 361.22 292.71 340.02 317.03 318.81 341.35 309.89 310.34 300.96 279.34 331.09 286.02"/><rect class="cls-3" x="319.16" y="279.34" width="58.56" height="62.58"/><polygon class="cls-3" points="303.75 279.25 325.86 285.71 326.79 279.33 303.75 279.25"/><polygon class="cls-3" points="294 278.92 318.81 341.35 360.42 289.02 294 278.92"/><polygon class="cls-3" points="295.7 278.75 322.97 278.85 320.74 289.56 295.7 278.75"/><path class="cls-2" d="M287.33,258a1.5,1.5,0,0,0,0-3,1.5,1.5,0,0,0,0,3Z"/><path class="cls-2" d="M287.3,258a1.5,1.5,0,0,0,0-3,1.5,1.5,0,0,0,0,3Z"/><path class="cls-2" d="M287.19,258a1.5,1.5,0,0,0,0-3,1.5,1.5,0,0,0,0,3Z"/><path class="cls-2" d="M287.13,258a1.5,1.5,0,0,0,0-3,1.5,1.5,0,0,0,0,3Z"/><path class="cls-2" d="M287.13,258.05a1.5,1.5,0,0,0,0-3,1.5,1.5,0,0,0,0,3Z"/><path class="cls-2" d="M287.06,258.05a1.5,1.5,0,0,0,0-3,1.5,1.5,0,0,0,0,3Z"/></g><rect class="cls-3" x="295.45" y="278.81" width="82.27" height="2.71"/><polygon class="cls-3" points="287.64 256.08 286.82 257.69 288.63 257.6 287.64 256.08"/><polygon class="cls-3" points="285.34 253.45 286.37 257.26 289.15 254.47 285.34 253.45"/></g><g id="Middle_Stripes_1" data-name="Middle Stripes #1"><g id="Stripe_1-2" data-name="Stripe #1"><polygon class="cls-3" points="235.36 341.92 206.11 279.64 264.62 279.64 235.36 341.92"/><polygon class="cls-3" points="273.17 280.18 298.82 342.47 233.95 334.95 273.17 280.18"/><rect class="cls-3" x="235.78" y="332.67" width="58.75" height="9.88"/><polygon class="cls-3" points="294.02 342.55 296.35 338.51 298.67 342.55 294.02 342.55"/><polygon class="cls-3" points="254.63 324.05 236.66 279.59 272.6 279.59 254.63 324.05"/><polygon class="cls-3" points="236.26 279.64 221.15 306.17 205.73 279.47 236.26 279.64"/><polygon class="cls-3" points="235.31 341.8 205.73 279.47 274.94 285.33 235.31 341.8"/></g><g id="Stripe_2-2" data-name="Stripe #2"><polygon class="cls-3" points="199.23 257.55 169.98 195.27 228.48 195.27 199.23 257.55"/><polygon class="cls-3" points="237.03 195.8 262.69 258.1 197.81 250.57 237.03 195.8"/><rect class="cls-3" x="199.65" y="248.3" width="58.75" height="9.88"/><polygon class="cls-3" points="257.88 258.17 260.21 254.14 262.54 258.17 257.88 258.17"/><polygon class="cls-3" points="218.49 239.67 200.53 195.21 236.46 195.21 218.49 239.67"/><polygon class="cls-3" points="200.13 195.27 185.02 221.8 169.6 195.1 200.13 195.27"/><polygon class="cls-3" points="199.17 257.43 169.6 195.1 238.81 200.96 199.17 257.43"/></g></g><g id="Middle_Stripes_2" data-name="Middle Stripes #2"><g id="Stripe_3" data-name="Stripe #3"><polygon class="cls-3" points="147.22 197.57 172.43 258.06 114.79 253.17 147.22 197.57"/><rect class="cls-3" x="114.28" y="248.3" width="53.5" height="9.88"/><polygon class="cls-3" points="167.93 258.17 170.04 254.14 172.15 258.17 167.93 258.17"/><polygon class="cls-3" points="113.95 257.52 88.03 196.05 145.12 198.53 113.95 257.52"/><polygon class="cls-3" points="88.48 196.36 123.36 196.43 106.63 226.15 88.48 196.36"/><rect class="cls-3" x="90.03" y="195.42" width="56.1" height="4"/><rect class="cls-3" x="139.78" y="197.42" width="6.75" height="18.74"/><polygon class="cls-3" points="88.91 197.62 87.74 195.42 90.08 195.42 88.91 197.62"/><polygon class="cls-3" points="148.5 200.63 143.76 198.63 146.5 195.9 148.5 200.63"/></g><g id="Stripe_4" data-name="Stripe #4"><polygon class="cls-3" points="187.17 282.46 212.39 342.95 154.75 338.06 187.17 282.46"/><rect class="cls-3" x="154.24" y="333.19" width="53.5" height="9.88"/><polygon class="cls-3" points="207.89 343.07 210 339.04 212.11 343.07 207.89 343.07"/><polygon class="cls-3" points="153.91 342.42 127.99 280.94 185.07 283.43 153.91 342.42"/><polygon class="cls-3" points="128.43 281.26 163.32 281.32 146.58 311.05 128.43 281.26"/><rect class="cls-3" x="129.99" y="280.32" width="56.1" height="4"/><rect class="cls-3" x="179.74" y="282.32" width="6.75" height="18.74"/><polygon class="cls-3" points="128.87 282.52 127.7 280.32 130.04 280.32 128.87 282.52"/><polygon class="cls-3" points="188.46 285.53 183.72 283.53 186.46 280.79 188.46 285.53"/></g></g><g id="End_Stripes" data-name="End Stripes"><g id="Stripe_1-3" data-name="Stripe #1"><polygon class="cls-3" points="63.09 257.1 42.94 208.66 68.61 204.78 63.09 257.1"/><polygon class="cls-3" points="61.03 236.06 66.34 197.45 92.92 257.58 61.03 236.06"/><polygon class="cls-3" points="78.84 237.05 93.28 258.67 64.41 258.67 78.84 237.05"/><polygon class="cls-3" points="65.34 258.06 56.53 237.63 78.29 240.05 65.34 258.06"/><polygon class="cls-3" points="63.76 258.22 63.23 255.27 66 256.28 63.76 258.22"/><rect class="cls-3" x="48.53" y="196.15" width="17.06" height="24.41"/><polygon class="cls-3" points="43.53 210.06 37.83 196.47 52.23 198.23 43.53 210.06"/><rect class="cls-3" x="44.53" y="202.29" width="5.56" height="7.65"/><polygon class="cls-3" points="47.26 196.16 41.62 203.98 37.74 196.3 47.26 196.16"/><rect class="cls-3" x="46.5" y="196.33" width="3.4" height="1.62"/></g><g id="Stripe_2-3" data-name="Stripe #2"><polygon class="cls-3" points="101.46 342.42 81.31 293.64 106.98 289.74 101.46 342.42"/><polygon class="cls-3" points="99.4 321.23 104.71 282.35 131.29 342.9 99.4 321.23"/><polygon class="cls-3" points="117.21 322.23 131.65 344 102.78 344 117.21 322.23"/><polygon class="cls-3" points="103.71 343.38 94.89 322.81 116.66 325.25 103.71 343.38"/><polygon class="cls-3" points="102.13 343.55 101.6 340.57 104.37 341.59 102.13 343.55"/><rect class="cls-3" x="86.9" y="281.05" width="17.06" height="24.58"/><polygon class="cls-3" points="81.9 295.06 76.2 281.37 90.6 283.14 81.9 295.06"/><rect class="cls-3" x="82.9" y="287.23" width="5.56" height="7.7"/><polygon class="cls-3" points="85.62 281.06 79.99 288.93 76.11 281.2 85.62 281.06"/><rect class="cls-3" x="84.87" y="281.23" width="3.4" height="1.63"/></g></g></g></svg>